<?xml version="1.0" standalone="no"?><!-- 
/* FilePathName: svgspj_svg/svgspj.svg */
/* Uploaded: 17:22:52,  Fri 31 Dec 2021 */
/* LineNo: 7 */-->
<!DOCTYPE svg PUBLIC "-//W3C//DTD SVG 1.0//EN"
    "http://www.w3.org/TR/2001/REC-SVG-20010904/DTD/svg10.dtd">
<svg width="605" height="680" style="Xborder:1px solid #000;"
    viewBox="100 100 100 100"
    xmlns="http://www.w3.org/2000/svg"
    xmlns:xlink="http://www.w3.org/1999/xlink"
    onclick="top.location.reload();"><path id="p" fill="none"
   d="M368.9 631.1C336.6 631.6,304.6 628.8,273.2 622.9,242.7 614.0,
213.5 602.1,185.7 587.4,159.8 570.1,135.8 550.4,114.0 528.5,
94.7 504.7,77.9 479.3,63.8 452.4,52.6 424.4,44.3 395.6,
38.9 366.4,36.6 336.8,37.2 307.4,40.7 278.4,47.0 250.1,
56.1 222.6,67.9 196.5,82.1 171.7,98.6 148.7,117.2 127.6,
137.8 108.6,159.9 91.8,183.5 77.4,208.3 65.6,233.9 56.3,
260.2 49.7,286.8 45.8,313.5 44.7,340.0 46.1,366.1 50.2,
391.4 56.9,415.8 66.0,438.9 77.4,460.7 91.0,480.8 106.6,
499.2 124.0,515.6 143.0,529.9 163.4,541.9 185.0,551.7 207.5,
559.2 230.8,564.2 254.5,566.8 278.4,566.9 302.2,564.7 325.8,
560.2 348.8,553.4 371.2,544.5 392.5,533.6 412.7,520.8 431.6,
506.3 448.9,490.3 464.5,472.9 478.4,454.3 490.3,434.9 500.3,
414.6 508.1,393.9 513.9,372.8 517.5,351.7 518.9,330.8 518.3,
310.1 515.5,290.1 510.7,270.8 504.0,252.4 495.5,235.1 485.2,
219.1 473.4,204.5 460.1,191.4 445.6,180.0 429.9,170.3 413.4,
162.4 396.1,156.3 378.3,152.1 360.1,149.7 341.8,149.2 323.5,
150.6 305.4,153.7 287.7,158.6 270.7,165.1 254.3,173.1 238.9,
182.5 224.5,193.3 211.2,205.2 199.3,218.1 188.7,231.8 179.6,
246.3 171.9,261.2 165.9,276.6 161.5,292.1 158.6,307.7 157.4,
323.1 157.7,338.2 159.6,352.9 162.9,367.1 167.7,380.5 173.8,
393.0 181.1,404.6 189.6,415.2 199.1,424.6 209.4,432.8 220.6,
439.7 232.3,445.4 244.5,449.7 257.1,452.7 269.9,454.3 282.7,
454.6 295.5,453.6 308.0,451.4 320.2,448.0 332.0,443.5 343.1,
438.0 353.6,431.5 363.4,424.2 372.2,416.1 380.2,407.4 387.1,
398.1 393.1,388.5 398.0,378.6 401.8,368.5 404.5,358.4 406.2,
348.3 406.7,338.4 406.3,328.7 404.9,319.5 402.5,310.7 399.2,
302.4 395.1,294.8 390.3,287.8 384.8,281.6 378.7,276.2 372.2,
271.5 365.3,267.7 358.1,264.8 350.7,262.7 343.2,261.4 335.6,
260.9 328.2,261.2 320.9,262.3 313.9,264.0 307.2,266.4 300.9,
269.4 295.0,272.9 289.6,276.8 284.8,281.1 280.5,285.8 276.9,
290.6 273.9,295.6 271.4,300.7 269.7,305.8 268.5,310.8 267.9,
315.7 267.9,320.3 268.4,324.8 269.5,328.9 271.0,332.7 272.8,
336.1 275.1,339.0 277.6,341.6 280.3,343.7 283.2,345.3 286.2,
346.5 289.3,347.2 292.3,347.5 295.3,347.4 298.1,346.9 300.8,
346.1 303.2,345.0 305.4,343.6 307.3,342.0 308.8,340.3 310.0,
338.4 310.9,336.5 311.3,334.6 311.4,332.8 311.2,331.1 310.6,
329.5 309.7,327.9 309.0,326.1 308.6,324.2 308.6,322.3 308.9,
320.5 309.6,318.7 310.7,317.0 312.1,315.6 313.8,314.3 315.9,
313.4 318.2,312.8 320.8,312.5 323.6,312.6 326.5,313.2 329.5,
314.2 332.5,315.6 335.6,317.5 338.5,319.9 341.4,322.7 344.0,
325.9 346.3,329.6 348.3,333.5 350.0,337.9 351.2,342.4 351.9,
347.2 352.1,352.2 351.8,357.3 350.9,362.4 349.3,367.4 347.2,
372.3 344.4,377.1 341.0,381.5 337.0,385.6 332.4,389.3 327.2,
392.5 321.5,395.1 315.4,397.1 308.8,398.5 301.9,399.1 294.7,
398.9 287.3,398.0 279.8,396.2 272.3,393.5 264.9,390.1 257.6,
385.8 250.5,380.6 243.8,374.7 237.6,368.1 231.8,360.7 226.7,
352.7 222.3,344.1 218.7,335.0 216.0,325.5 214.2,315.7 213.3,
305.7 213.5,295.6 214.7,285.4 217.0,275.4 220.4,265.7 224.8,
256.3 230.3,247.3 236.9,239.0 244.5,231.3 253.0,224.5 262.4,
218.6 272.6,213.6 283.5,209.8 295.0,207.1 307.1,205.6 319.5,
205.4 332.2,206.5 345.0,209.0 357.8,212.7 370.5,217.8 382.8,
224.3 394.8,232.0 406.2,240.9 416.9,251.0 426.7,262.2 435.6,
274.4 443.4,287.5 450.0,301.3 455.3,315.8 459.3,330.8 461.7,
346.1 462.7,361.7 462.1,377.2 459.9,392.7 456.1,407.8 450.7,
422.5 443.7,436.5 435.1,449.8 425.1,462.1 413.7,473.3 401.0,
483.3 387.0,491.9 372.0,499.0 356.0,504.5 339.2,508.4 321.7,
510.4 303.8,510.7 285.6,509.1 267.2,505.6 249.0,500.3 231.0,
493.1 213.5,484.1 196.6,473.4 180.6,460.9 165.6,446.9 151.8,
431.5 139.3,414.7 128.4,396.7 119.2,377.8 111.7,358.0 106.2,
337.5 102.6,316.7 101.1,295.6 101.7,274.5 104.4,253.6 109.3,
233.2 116.3,213.4 125.4,194.4 136.6,176.5 149.7,159.9 164.6,
144.8 181.3,131.3 199.6,119.6 219.3,109.9 240.2,102.2 262.1,
96.8 284.9,93.7 308.3,92.9 332.1,94.5 356.0,98.6 379.8,
105.0 403.2,113.9 426.1,125.0 448.1,138.5 469.0,154.0 488.6,
171.6 506.7,191.0 523.0,212.2 537.4,234.8 549.7,258.7 559.8,
283.7 567.4,309.5 572.5,335.8 575.1,362.5 575.0,389.2 572.1,
390.8 576.7,393.1 578.4,395.3 580.3,397.3 582.4,399.0 584.7,
400.5 587.2,401.8 589.8,402.7 592.5,403.4 595.4,403.9 598.2,
404.0 601.1,403.8 604.0,403.4 606.9,402.7 609.7,401.7 612.4,
400.4 615.0,398.9 617.5,397.1 619.8,395.1 621.9,392.9 623.8,
390.6 625.5,388.1 626.9,385.4 628.1,382.6 629.0,379.8 629.6,
376.9 629.9,374.0 630.0,371.1 629.7,368.3 629.2,365.5 628.4,
362.8 627.3"/>
 <use  href="#p" stroke="#5c5" stroke-width="66"/>
 <use  href="#p" stroke="#c33" stroke-width="46"/>
 <use  href="#p" stroke="#7f7" stroke-width="24"/>
<circle r="30" style="fill:#ff0;stroke:#55f;stroke-width:10;">
    <animateMotion dur="15s" repeatCount="indefinite">
        <mpath href="#p"/></animateMotion></circle>
<text>
  <textPath xlink:href="#p"><tspan id="ts" dy="0" font-size="25"
    font-weight="bold" alignment-baseline="after-edge" letter-spacing="1.66"
>  1    |    2    |    3    |    4    |    5    |    6    |    7    |    8    |    9    |    10    |    11    |    12    |    13    |    14    |    15    |    16    |    17    |    18    |    19    |    20    |    21    |    22    |    23    |    24    |    25    |    26    |    27    |    28    |    29    |    30    |    31    |    32    |    33    |    34    |    35    |    36    |    37    |    38    |    39    |    40    |    41    |    42    |    43    |    44    |    45    |    46    |    47    |    48    |    49    |    50    |    51    |    52    |    53    |    54    |    55    |    56    |    57    |    58    |    59    |    60    |    61    |    62    |    63    |    64    |    65    |    66    |    67    |    68    |    69    |    70    |    71    |    72    |    73    |    74    |    75    |    76    |    77    |    78    |    79    |    80    |    81    |    82    |    83    |    84    |    85    |    86    |    87    |    88    |    89    |    90    |    91    |    92    |    93    |    94    |    95    |    96    |    97    |    98    |     99      |100  | </tspan>
 </textPath></text>
   <script type="text/javascript">
    var tsp,dy,fnt;
   if('iphone,ipad,ipod,mac'.indexOf(navigator.platform.toLowerCase())!=-1) {
      dy=0;
      fnt=25;
    } else {
      dy=15;
      fnt=22.7;
    }
    tsp=document.getElementById('ts');
    tsp.setAttribute('dy', dy);
    tsp.setAttribute('font-size', fnt);
   </script>
</svg>







